<svg xmlns="http://www.w3.org/2000/svg" viewBox="0 0 64 80" x="0px" y="0px"><title>planet</title><g><path fill="#2a2a72" d="M29.39,40.48a107.92,107.92,0,0,0,13.38,4,15.48,15.48,0,0,1-26.15-9.52A109,109,0,0,0,29.39,40.48Zm.69-1.88a100.19,100.19,0,0,1-13.53-6,15.3,15.3,0,0,1,3.19-8.76q.47-.6,1-1.17c.16-.17.33-.34.5-.5A15.32,15.32,0,0,1,32,17.78a15.5,15.5,0,0,1,15.4,13.86,14.57,14.57,0,0,1,.09,1.63c0,.22,0,.45,0,.67a15.29,15.29,0,0,1-3.19,8.78A102.49,102.49,0,0,1,30.08,38.6ZM23.79,25.25a11.68,11.68,0,0,1,10.05-3.32A1,1,0,0,0,35,21.1,1,1,0,0,0,34.16,20,13.83,13.83,0,0,0,32,19.78a13.59,13.59,0,0,0-9.66,4.08,1,1,0,0,0,0,1.41,1,1,0,0,0,1.41,0Zm-7.23,9c0-.33,0-.67,0-1s0-.44,0-.66c-.68-.36-1.32-.72-1.93-1.09C8.92,28.16,6,25.25,6.48,24c.36-1,3.64-1.83,11.09-.55A15.77,15.77,0,0,1,19,21.64c-5.53-1-13.13-1.78-14.37,1.64-1,2.88,3.3,6.78,9.94,10.5h0c.61.34,1.23.68,1.88,1l.2.1q0-.3-.06-.6ZM49.5,32.77c0,.17,0,.33,0,.5A17.14,17.14,0,0,1,49.42,35c6.47,3.77,8.51,6.55,8.14,7.56-.25.68-2.28,1.66-8.31.95-.89-.11-1.82-.24-2.78-.41L45,42.86h0l-.12,0-.52-.11c-.12.16-.24.31-.37.46a15,15,0,0,1-1.08,1.17l-.08.08h0c.79.17,1.54.33,2.29.47a2.2,2.2,0,0,1-.2.23l.21-.23c1.38.26,2.69.47,3.93.61a34,34,0,0,0,4,.27c3.66,0,5.81-.85,6.42-2.52C60.68,39.87,54.47,35.58,49.5,32.77ZM51.87,18.5a5.7,5.7,0,1,0-5.69-5.69A5.7,5.7,0,0,0,51.87,18.5ZM34,11.42a.92.92,0,1,0-.92-.92A.92.92,0,0,0,34,11.42Zm-13-3a.92.92,0,1,0-.92-.92A.92.92,0,0,0,21,8.42ZM51.08,25.5a.92.92,0,1,0,.92-.92A.92.92,0,0,0,51.08,25.5ZM60,22.42a.92.92,0,1,0-.92-.92A.92.92,0,0,0,60,22.42Zm0,9.16a.92.92,0,1,0,.92.92A.92.92,0,0,0,60,31.58Zm-56,0a.92.92,0,1,0,.92.92A.92.92,0,0,0,4,31.58Zm5,10a.92.92,0,1,0,.92.92A.92.92,0,0,0,9,41.58Zm-3,8a.92.92,0,1,0,.92.92A.92.92,0,0,0,6,49.58Zm41,0a.92.92,0,1,0,.92.92A.92.92,0,0,0,47,49.58Zm6,5a.92.92,0,1,0,.92.92A.92.92,0,0,0,53,54.58ZM12,15.42a.92.92,0,1,0-.92-.92A.92.92,0,0,0,12,15.42Zm8.89-1.92A1.11,1.11,0,1,0,22,12.39,1.11,1.11,0,0,0,20.89,13.5ZM13,48.39a1.11,1.11,0,1,0,1.11,1.11A1.11,1.11,0,0,0,13,48.39Zm21,7a1.11,1.11,0,1,0,1.11,1.11A1.11,1.11,0,0,0,34,55.39ZM39,8.61A1.11,1.11,0,1,0,37.89,7.5,1.11,1.11,0,0,0,39,8.61Z"/></g></svg>